<svg width="15" height="16" viewBox="0 0 15 16" fill="none" xmlns="http://www.w3.org/2000/svg">
<g clip-path="url(#clip0_123_262)">
<path d="M14.9999 7.52948C14.9095 6.067 14.3931 4.66293 13.5144 3.49037C12.6357 2.31782 11.433 1.42804 10.0547 0.93073C8.67643 0.433419 7.18272 0.350317 5.75776 0.691668C4.3328 1.03302 3.03888 1.7839 2.03551 2.85174C1.03214 3.91959 0.363187 5.25771 0.111126 6.70114C-0.140936 8.14458 0.0349098 9.63023 0.616985 10.9749C1.19906 12.3196 2.16192 13.4646 3.38685 14.2687C4.61179 15.0728 6.04526 15.5009 7.51054 15.5001H11.8749C12.7035 15.4993 13.4978 15.1698 14.0837 14.5839C14.6696 13.998 14.9991 13.2037 14.9999 12.3751V7.52948ZM13.7499 12.3751C13.7499 12.8724 13.5524 13.3493 13.2007 13.7009C12.8491 14.0526 12.3722 14.2501 11.8749 14.2501H7.51054C6.62862 14.2497 5.75669 14.0634 4.9516 13.7034C4.14651 13.3434 3.42633 12.8178 2.83804 12.1607C2.2469 11.504 1.80299 10.7285 1.5361 9.88623C1.2692 9.04392 1.18547 8.15429 1.29054 7.27698C1.45643 5.8932 2.07816 4.60398 3.05769 3.61256C4.03722 2.62115 5.31885 1.98393 6.70054 1.80136C6.97006 1.76758 7.24141 1.75046 7.51304 1.75011C8.96958 1.74614 10.381 2.25505 11.4999 3.18761C12.1534 3.7307 12.6897 4.40083 13.0765 5.15738C13.4633 5.91393 13.6924 6.74113 13.7499 7.58886V12.3751Z" fill="#536B81"/>
<path d="M4.99988 6.12491H7.49988C7.66564 6.12491 7.82461 6.05906 7.94182 5.94185C8.05903 5.82464 8.12488 5.66567 8.12488 5.49991C8.12488 5.33415 8.05903 5.17518 7.94182 5.05797C7.82461 4.94076 7.66564 4.87491 7.49988 4.87491H4.99988C4.83412 4.87491 4.67515 4.94076 4.55794 5.05797C4.44073 5.17518 4.37488 5.33415 4.37488 5.49991C4.37488 5.66567 4.44073 5.82464 4.55794 5.94185C4.67515 6.05906 4.83412 6.12491 4.99988 6.12491Z" fill="#536B81"/>
<path d="M9.99988 7.37509H4.99988C4.83412 7.37509 4.67515 7.44094 4.55794 7.55815C4.44073 7.67536 4.37488 7.83433 4.37488 8.00009C4.37488 8.16586 4.44073 8.32483 4.55794 8.44204C4.67515 8.55925 4.83412 8.6251 4.99988 8.6251H9.99988C10.1656 8.6251 10.3246 8.55925 10.4418 8.44204C10.559 8.32483 10.6249 8.16586 10.6249 8.00009C10.6249 7.83433 10.559 7.67536 10.4418 7.55815C10.3246 7.44094 10.1656 7.37509 9.99988 7.37509Z" fill="#536B81"/>
<path d="M9.99988 9.875H4.99988C4.83412 9.875 4.67515 9.94085 4.55794 10.0581C4.44073 10.1753 4.37488 10.3342 4.37488 10.5C4.37488 10.6658 4.44073 10.8247 4.55794 10.9419C4.67515 11.0592 4.83412 11.125 4.99988 11.125H9.99988C10.1656 11.125 10.3246 11.0592 10.4418 10.9419C10.559 10.8247 10.6249 10.6658 10.6249 10.5C10.6249 10.3342 10.559 10.1753 10.4418 10.0581C10.3246 9.94085 10.1656 9.875 9.99988 9.875Z" fill="#536B81"/>
</g>
<defs>
<clipPath id="clip0_123_262">
<rect width="15" height="15" fill="white" transform="translate(0 0.5)"/>
</clipPath>
</defs>
</svg>
