<svg width="24" height="24" viewBox="0 0 24 24" fill="none" xmlns="http://www.w3.org/2000/svg">
<g clip-path="url(#clip0_24_2302)">
<path d="M13.0002 20.0001C14.3257 19.9985 15.5966 19.4712 16.5339 18.5339C17.4713 17.5966 17.9986 16.3257 18.0002 15.0001V6.24311C18.0017 5.71747 17.8989 5.19675 17.6977 4.71113C17.4966 4.22551 17.201 3.78465 16.8282 3.41411L14.5862 1.17211C14.2156 0.799283 13.7748 0.503712 13.2891 0.302529C12.8035 0.101346 12.2828 -0.0014464 11.7572 0.000108942H7.00015C5.67456 0.0016968 4.40371 0.528991 3.46637 1.46633C2.52903 2.40367 2.00174 3.67451 2.00015 5.00011V15.0001C2.00174 16.3257 2.52903 17.5966 3.46637 18.5339C4.40371 19.4712 5.67456 19.9985 7.00015 20.0001H13.0002ZM4.00015 15.0001V5.00011C4.00015 4.20446 4.31622 3.4414 4.87883 2.87879C5.44144 2.31618 6.2045 2.00011 7.00015 2.00011C7.00015 2.00011 11.9192 2.01411 12.0002 2.02411V4.00011C12.0002 4.53054 12.2109 5.03925 12.5859 5.41432C12.961 5.7894 13.4697 6.00011 14.0002 6.00011H15.9762C15.9862 6.08111 16.0002 15.0001 16.0002 15.0001C16.0002 15.7958 15.6841 16.5588 15.1215 17.1214C14.5589 17.684 13.7958 18.0001 13.0002 18.0001H7.00015C6.2045 18.0001 5.44144 17.684 4.87883 17.1214C4.31622 16.5588 4.00015 15.7958 4.00015 15.0001ZM22.0002 8.00011V19.0001C21.9986 20.3257 21.4713 21.5966 20.5339 22.5339C19.5966 23.4712 18.3257 23.9985 17.0002 24.0001H8.00015C7.73494 24.0001 7.48058 23.8948 7.29305 23.7072C7.10551 23.5197 7.00015 23.2653 7.00015 23.0001C7.00015 22.7349 7.10551 22.4805 7.29305 22.293C7.48058 22.1055 7.73494 22.0001 8.00015 22.0001H17.0002C17.7958 22.0001 18.5589 21.684 19.1215 21.1214C19.6841 20.5588 20.0002 19.7958 20.0002 19.0001V8.00011C20.0002 7.73489 20.1055 7.48054 20.293 7.293C20.4806 7.10547 20.7349 7.00011 21.0002 7.00011C21.2654 7.00011 21.5197 7.10547 21.7073 7.293C21.8948 7.48054 22.0002 7.73489 22.0002 8.00011Z" fill="#536B81"/>
</g>
<defs>
<clipPath id="clip0_24_2302">
<rect width="24" height="24" fill="white"/>
</clipPath>
</defs>
</svg>
