<svg width="15" height="16" viewBox="0 0 15 16" fill="none" xmlns="http://www.w3.org/2000/svg">
<g clip-path="url(#clip0_24_236)">
<path d="M7.5 15.5C6.01664 15.5 4.5666 15.0601 3.33323 14.236C2.09986 13.4119 1.13856 12.2406 0.570907 10.8701C0.00324965 9.49968 -0.145275 7.99168 0.144114 6.53683C0.433503 5.08197 1.14781 3.7456 2.1967 2.6967C3.2456 1.64781 4.58197 0.933503 6.03683 0.644114C7.49168 0.354725 8.99968 0.50325 10.3701 1.07091C11.7406 1.63856 12.9119 2.59986 13.736 3.83323C14.5601 5.0666 15 6.51664 15 8C14.9979 9.98847 14.207 11.8949 12.8009 13.3009C11.3949 14.707 9.48847 15.4979 7.5 15.5ZM7.5 1.75C6.26387 1.75 5.0555 2.11656 4.02769 2.80332C2.99988 3.49008 2.1988 4.46619 1.72576 5.60823C1.25271 6.75027 1.12894 8.00694 1.3701 9.21932C1.61125 10.4317 2.20651 11.5453 3.08059 12.4194C3.95466 13.2935 5.06831 13.8888 6.28069 14.1299C7.49307 14.3711 8.74974 14.2473 9.89178 13.7743C11.0338 13.3012 12.0099 12.5001 12.6967 11.4723C13.3834 10.4445 13.75 9.23614 13.75 8C13.7482 6.34296 13.0891 4.7543 11.9174 3.5826C10.7457 2.41089 9.15705 1.75182 7.5 1.75ZM11.0913 11.5419C11.146 11.4806 11.1882 11.4092 11.2153 11.3317C11.2424 11.2541 11.254 11.172 11.2493 11.09C11.2447 11.0079 11.2239 10.9276 11.1882 10.8536C11.1525 10.7796 11.1026 10.7134 11.0413 10.6588C10.0488 9.81092 8.80362 9.31556 7.5 9.25C6.19639 9.31556 4.95117 9.81092 3.95875 10.6588C3.83493 10.769 3.75997 10.9239 3.75036 11.0894C3.74075 11.2549 3.79727 11.4174 3.9075 11.5413C4.01773 11.6651 4.17264 11.74 4.33814 11.7497C4.50364 11.7593 4.66618 11.7027 4.79 11.5925C5.55405 10.9492 6.50342 10.5665 7.5 10.5C8.49657 10.5666 9.44591 10.9493 10.21 11.5925C10.3337 11.7024 10.4959 11.7589 10.6611 11.7494C10.8263 11.7399 10.981 11.6653 11.0913 11.5419ZM3.75 6.75C3.75 7.375 4.30938 7.375 5 7.375C5.69063 7.375 6.25 7.375 6.25 6.75C6.25 6.41848 6.11831 6.10054 5.88389 5.86612C5.64947 5.6317 5.33152 5.5 5 5.5C4.66848 5.5 4.35054 5.6317 4.11612 5.86612C3.8817 6.10054 3.75 6.41848 3.75 6.75ZM8.75 6.75C8.75 7.375 9.30938 7.375 10 7.375C10.6906 7.375 11.25 7.375 11.25 6.75C11.25 6.41848 11.1183 6.10054 10.8839 5.86612C10.6495 5.6317 10.3315 5.5 10 5.5C9.66848 5.5 9.35054 5.6317 9.11612 5.86612C8.8817 6.10054 8.75 6.41848 8.75 6.75Z" fill="#F95738"/>
</g>
<defs>
<clipPath id="clip0_24_236">
<rect width="15" height="15" fill="white" transform="translate(0 0.5)"/>
</clipPath>
</defs>
</svg>
