<svg width="15" height="16" viewBox="0 0 15 16" fill="none" xmlns="http://www.w3.org/2000/svg">
<g clip-path="url(#clip0_24_223)">
<path d="M7.5 15.5C6.01664 15.5 4.5666 15.0601 3.33323 14.236C2.09986 13.4119 1.13856 12.2406 0.570907 10.8701C0.00324965 9.49968 -0.145275 7.99168 0.144114 6.53683C0.433503 5.08197 1.14781 3.7456 2.1967 2.6967C3.2456 1.64781 4.58197 0.933503 6.03683 0.644114C7.49168 0.354725 8.99968 0.50325 10.3701 1.07091C11.7406 1.63856 12.9119 2.59986 13.736 3.83323C14.5601 5.0666 15 6.51664 15 8C14.9979 9.98847 14.207 11.8949 12.8009 13.3009C11.3949 14.707 9.48847 15.4979 7.5 15.5ZM7.5 1.75C6.26387 1.75 5.0555 2.11656 4.02769 2.80332C2.99988 3.49008 2.1988 4.46619 1.72576 5.60823C1.25271 6.75027 1.12894 8.00694 1.3701 9.21932C1.61125 10.4317 2.20651 11.5453 3.08059 12.4194C3.95466 13.2935 5.06831 13.8888 6.28069 14.1299C7.49307 14.3711 8.74974 14.2473 9.89178 13.7743C11.0338 13.3012 12.0099 12.5001 12.6967 11.4723C13.3834 10.4445 13.75 9.23614 13.75 8C13.7482 6.34296 13.0891 4.7543 11.9174 3.5826C10.7457 2.41089 9.15705 1.75182 7.5 1.75ZM11.0413 10.3413C11.1651 10.231 11.24 10.0761 11.2497 9.91062C11.2593 9.74512 11.2027 9.58258 11.0925 9.45875C10.9823 9.33493 10.8274 9.25997 10.6619 9.25036C10.4964 9.24075 10.3338 9.29727 10.21 9.4075C9.44596 10.0508 8.49659 10.4335 7.5 10.5C6.50401 10.4336 5.55514 10.0513 4.79125 9.40875C4.6676 9.29836 4.50515 9.2416 4.33965 9.25098C4.17415 9.26036 4.01915 9.3351 3.90875 9.45875C3.79836 9.58241 3.7416 9.74486 3.75098 9.91036C3.76036 10.0759 3.8351 10.2309 3.95875 10.3413C4.95117 11.1891 6.19639 11.6844 7.5 11.75C8.80362 11.6844 10.0488 11.1891 11.0413 10.3413ZM3.75 6.75C3.75 7.375 4.30938 7.375 5 7.375C5.69063 7.375 6.25 7.375 6.25 6.75C6.25 6.41848 6.11831 6.10054 5.88389 5.86612C5.64947 5.6317 5.33152 5.5 5 5.5C4.66848 5.5 4.35054 5.6317 4.11612 5.86612C3.8817 6.10054 3.75 6.41848 3.75 6.75ZM8.75 6.75C8.75 7.375 9.30938 7.375 10 7.375C10.6906 7.375 11.25 7.375 11.25 6.75C11.25 6.41848 11.1183 6.10054 10.8839 5.86612C10.6495 5.6317 10.3315 5.5 10 5.5C9.66848 5.5 9.35054 5.6317 9.11612 5.86612C8.8817 6.10054 8.75 6.41848 8.75 6.75Z" fill="#28E41C"/>
</g>
<defs>
<clipPath id="clip0_24_223">
<rect width="15" height="15" fill="white" transform="translate(0 0.5)"/>
</clipPath>
</defs>
</svg>
